HIERARCHY
ROOT Hips
{
	OFFSET 0.00000 0.00000 0.00000
	CHANNELS 6 Xposition Yposition Zposition Zrotation Yrotation Xrotation 
	JOINT LHipJoint
	{
		OFFSET 0 0 0
		CHANNELS 3 Zrotation Yrotation Xrotation
		JOINT LeftUpLeg
		{
			OFFSET 1.48831 -1.59570 0.95625
			CHANNELS 3 Zrotation Yrotation Xrotation
			JOINT LeftLeg
			{
				OFFSET 2.20856 -6.06797 0.00000
				CHANNELS 3 Zrotation Yrotation Xrotation
				JOINT LeftFoot
				{
					OFFSET 2.62924 -7.22379 0.00000
					CHANNELS 3 Zrotation Yrotation Xrotation
					JOINT LeftToeBase
					{
						OFFSET 0.16802 -0.46163 2.41673
						CHANNELS 3 Zrotation Yrotation Xrotation
						End Site
						{
							OFFSET 0.00000 -0.00000 1.23760
						}
					}
				}
			}
		}
	}
	JOINT RHipJoint
	{
		OFFSET 0 0 0
		CHANNELS 3 Zrotation Yrotation Xrotation
		JOINT RightUpLeg
		{
			OFFSET -1.56796 -1.59570 0.95625
			CHANNELS 3 Zrotation Yrotation Xrotation
			JOINT RightLeg
			{
				OFFSET -2.29239 -6.29829 0.00000
				CHANNELS 3 Zrotation Yrotation Xrotation
				JOINT RightFoot
				{
					OFFSET -2.66963 -7.33475 0.00000
					CHANNELS 3 Zrotation Yrotation Xrotation
					JOINT RightToeBase
					{
						OFFSET -0.18185 -0.49964 2.34359
						CHANNELS 3 Zrotation Yrotation Xrotation
						End Site
						{
							OFFSET -0.00000 -0.00000 1.20477
						}
					}
				}
			}
		}
	}
	JOINT LowerBack
	{
		OFFSET 0 0 0
		CHANNELS 3 Zrotation Yrotation Xrotation
		JOINT Spine
		{
			OFFSET 0.03505 2.15832 -0.34324
			CHANNELS 3 Zrotation Yrotation Xrotation
			JOINT Spine1
			{
				OFFSET -0.01089 2.17963 0.04689
				CHANNELS 3 Zrotation Yrotation Xrotation
				JOINT Neck
				{
					OFFSET 0 0 0
					CHANNELS 3 Zrotation Yrotation Xrotation
					JOINT Neck1
					{
						OFFSET 0.04686 1.69404 0.22159
						CHANNELS 3 Zrotation Yrotation Xrotation
						JOINT Head
						{
							OFFSET 0.00265 1.69305 -0.01513
							CHANNELS 3 Zrotation Yrotation Xrotation
							End Site
							{
								OFFSET -0.00415 1.80215 -0.03034
							}
						}
					}
				}
				JOINT LeftShoulder
				{
					OFFSET 0 0 0
					CHANNELS 3 Zrotation Yrotation Xrotation
					JOINT LeftArm
					{
						OFFSET 3.67184 1.11724 -0.19002
						CHANNELS 3 Zrotation Yrotation Xrotation
						JOINT LeftForeArm
						{
							OFFSET 5.17714 -0.00000 -0.00000
							CHANNELS 3 Zrotation Yrotation Xrotation
							JOINT LeftHand
							{
								OFFSET 3.43679 -0.00000 -0.00000
								CHANNELS 3 Zrotation Yrotation Xrotation
								JOINT LeftFingerBase
								{
									OFFSET 0 0 0
									CHANNELS 3 Zrotation Yrotation Xrotation
									JOINT LeftHandIndex1
									{
										OFFSET 0.57312 -0.00000 -0.00000
										CHANNELS 3 Zrotation Yrotation Xrotation
										End Site
										{
											OFFSET 0.46206 -0.00000 -0.00000
										}
									}
								}
								JOINT LThumb
								{
									OFFSET 0 0 0
									CHANNELS 3 Zrotation Yrotation Xrotation
									End Site
									{
										OFFSET 0.46912 -0.00000 0.46912
									}
								}
							}
						}
					}
				}
				JOINT RightShoulder
				{
					OFFSET 0 0 0
					CHANNELS 3 Zrotation Yrotation Xrotation
					JOINT RightArm
					{
						OFFSET -3.59596 0.95831 -0.26050
						CHANNELS 3 Zrotation Yrotation Xrotation
						JOINT RightForeArm
						{
							OFFSET -5.23908 -0.00000 -0.00000
							CHANNELS 3 Zrotation Yrotation Xrotation
							JOINT RightHand
							{
								OFFSET -3.46485 -0.00000 -0.00000
								CHANNELS 3 Zrotation Yrotation Xrotation
								JOINT RightFingerBase
								{
									OFFSET 0 0 0
									CHANNELS 3 Zrotation Yrotation Xrotation
									JOINT RightHandIndex1
									{
										OFFSET -0.60875 -0.00000 -0.00000
										CHANNELS 3 Zrotation Yrotation Xrotation
										End Site
										{
											OFFSET -0.49079 -0.00000 -0.00000
										}
									}
								}
								JOINT RThumb
								{
									OFFSET 0 0 0
									CHANNELS 3 Zrotation Yrotation Xrotation
									End Site
									{
										OFFSET -0.49829 -0.00000 0.49829
									}
								}
							}
						}
					}
				}
			}
		}
	}
}
MOTION
Frames: 6
Frame Time: 0.0606061
0.00 0.00 0.00 0 0 0 0 0 0 -21 0 0 0 0 0 0 0 0 0 0 0 0 0 0 21 0 0 0 0 0 0 0 0 0 0 0 0 0 0 0 0 0 0 0 0 0 0 -16 0 0 21 0 0 11 0 0 0 -8 0 0 0 0 0 0 0 0 0 0 0 0 0 0 0 0 0 0 0 0 8 0 0 0 0 0 0 0 0 0 0 0 0 0 0 0 0 0
0.00 0.00 0.00 -19.2433 -56.7481 26.1790 0.0000 0.0000 0.0000 -13.8529 16.1097 -54.2714 11.8990 18.3476 65.6682 2.9294 4.3191 -34.0717 0.1178 -2.2124 -6.0929 0.0000 0.0000 0.0000 23.3524 15.1879 -49.1678 -10.4410 -17.6505 60.9524 -0.9579 6.1699 -17.4593 -0.0000 -0.0359 0.0987 -5.0504 -2.2999 28.8596 -1.3846 -4.8910 5.2745 3.1176 -2.2695 -9.6777 0.3386 -6.1802 -7.9424 3.3359 -9.1864 16.8051 0.2622 -4.1987 6.5685 0.0000 -0.0000 0.0000 -88.4464 13.6742 32.7549 152.3369 -38.8042 -110.0882 -0.0000 -0.0000 0.9012 -0.9876 42.8979 -0.6723 -7.1250 0.0000 -0.0000 -50.4850 66.0544 -28.6854 0.0000 -0.0000 0.0000 82.8079 -6.0459 43.3180 -145.8176 44.2194 -105.7599 0.0000 0.0000 12.6974 15.8498 -19.9892 -5.5434 7.1250 -0.0000 -0.0000 40.3969 -45.7806 -0.9348
0.00 0.00 0.00 -14.9258 -41.7177 18.1585 0.0000 0.0000 0.0000 -13.1055 2.5705 -43.6855 10.6190 17.7436 61.5380 3.0151 3.7445 -34.2931 0.0587 -1.5635 -4.3007 0.0000 0.0000 0.0000 19.0246 8.0706 -56.2707 -15.4473 -19.4956 76.5804 0.0761 -7.5276 -8.8397 -0.0001 -0.0493 0.1355 -5.6184 -1.2902 29.0156 -2.4162 -3.8429 5.1440 1.9188 -1.7363 -10.0259 2.1929 -2.9299 -7.1618 2.5006 -4.7245 14.8421 0.0907 -2.0374 5.6752 0.0000 0.0000 0.0000 -86.2203 13.3801 32.9551 150.8486 -40.1548 -109.1418 -0.0000 0.0000 -0.2993 -0.3892 41.8394 -0.2596 -7.1250 0.0000 -0.0000 -48.1620 65.5380 -26.5490 0.0000 0.0000 0.0000 82.6962 -5.4158 43.1909 -146.0583 44.0415 -105.9275 0.0000 0.0000 13.3197 16.5951 -19.7025 -5.7375 7.1250 -0.0000 -0.0000 40.8004 -45.4469 -0.5440
0.00 0.00 0.00 -11.7276 -38.3136 10.8472 0.0000 0.0000 0.0000 -16.6050 2.1953 -32.5657 9.2780 16.9833 57.0465 3.1376 3.8207 -34.9806 0.1126 -2.1637 -5.9583 0.0000 0.0000 0.0000 19.2259 5.7894 -68.4195 -19.2488 -19.9865 87.8030 -1.2208 -4.4306 -22.8989 -0.5467 4.7368 -13.1595 -5.8494 -1.0977 28.7301 -3.1787 -3.7154 5.4524 1.1302 -1.7034 -9.5802 3.0301 -0.7128 -7.7192 1.2101 -1.7526 17.4550 -0.2607 -0.6047 6.5722 0.0000 -0.0000 0.0000 -86.1499 12.1403 34.3212 148.9000 -41.8178 -107.8636 -0.0000 0.0000 -0.7586 -0.8741 41.6197 -0.5806 -7.1250 0.0000 -0.0000 -48.2545 65.2496 -26.3036 0.0000 -0.0000 0.0000 82.6682 -5.1384 41.8345 -145.8137 44.2223 -105.7572 0.0000 0.0000 13.3640 16.6599 -19.8197 -5.7937 7.1250 -0.0000 -0.0000 40.9222 -45.5322 -0.6502
0.00 0.00 0.00 -5.7357 -30.5450 1.9629 0.0000 0.0000 0.0000 -20.6647 12.5259 -16.2245 6.2844 14.6984 46.1127 2.7143 -4.9468 -30.0875 0.1769 -2.7089 -7.4693 0.0000 0.0000 0.0000 27.8988 3.7171 -55.0960 -7.8324 -15.9946 51.9566 -1.9847 -6.3526 -29.5053 -0.4602 4.3514 -12.0674 -6.2100 -1.7134 25.9823 -3.7283 -4.4386 4.4999 0.8747 -2.0155 -9.2478 3.2201 -0.0958 -8.0337 0.8054 -0.7876 15.3158 -0.3389 -0.1694 5.9534 0.0000 0.0000 0.0000 -87.2475 14.0049 31.8019 147.5929 -42.8694 -106.9830 -0.0000 0.0000 -1.1898 -2.2376 41.7498 -1.4904 -7.1250 0.0000 -0.0000 -49.7142 64.9418 -26.9404 0.0000 0.0000 0.0000 82.7772 -6.3695 40.9575 -146.2022 43.9344 -106.0274 0.0000 0.0000 12.6184 17.1484 -19.8117 -5.9704 7.1250 -0.0000 -0.0000 41.2936 -45.4584 -0.5676
0.00 0.00 0.00 -0.0668 -19.2486 1.2857 0.0000 0.0000 0.0000 -20.6006 18.8128 -5.1245 3.6370 11.6610 34.5432 0.4939 -16.7586 -16.1809 0.2769 -3.3846 -9.3513 0.0000 0.0000 0.0000 21.6350 8.7367 -41.1500 -4.6888 -13.0245 39.4603 -2.2203 -6.5395 -31.0784 -0.2750 3.3733 -9.3197 -4.0439 -3.5094 22.4134 -2.7500 -5.8595 3.3848 0.9970 -2.7257 -8.6564 3.3729 -0.7732 -8.3191 0.9987 -1.6678 12.4264 -0.3552 -0.6054 5.0896 0.0000 0.0000 0.0000 -88.8876 16.7717 33.1326 147.1256 -43.2333 -106.6641 -0.0000 0.0000 -1.9058 -1.8119 41.4730 -1.2002 -7.1250 0.0000 -0.0000 -48.8843 64.8811 -26.3231 0.0000 0.0000 0.0000 82.8296 -7.4566 39.5188 -146.2562 43.8940 -106.0648 0.0000 0.0000 12.7650 18.0676 -19.9331 -6.3462 7.1250 -0.0000 -0.0000 42.0714 -45.4277 -0.5443
